<svg width="64" height="64" viewBox="0 0 64 64" fill="none" xmlns="http://www.w3.org/2000/svg">
  <rect width="64" height="64" rx="16" fill="#102A43"/>
  <path d="M16 22C16 18.6863 18.6863 16 22 16H29C32.3137 16 35 18.6863 35 22V42C35 45.3137 32.3137 48 29 48H22C18.6863 48 16 45.3137 16 42V22Z" fill="#F0B429"/>
  <path d="M29 20H42C45.3137 20 48 22.6863 48 26V28C48 31.3137 45.3137 34 42 34H35V26C35 22.6863 32.3137 20 29 20Z" fill="#2CB1BC"/>
  <path d="M35 34H42C45.3137 34 48 36.6863 48 40V42C48 45.3137 45.3137 48 42 48H35V34Z" fill="#486581"/>
</svg>
